<svg id="Layer_1" data-name="Layer 1" xmlns="http://www.w3.org/2000/svg" viewBox="0 0 1734.01 555.5"><defs><style>.cls-1{fill:#d6b281;}</style></defs><title>MLBBLogo</title><path class="cls-1" d="M1577.54,682c-1.25.25-2.54.28-3.8.41h0c-.42-.16-.84-.36-1.26-.54l-.49-.19a4.86,4.86,0,0,0-1-.25c-7.33-.75-14.59,1-21.92.79-1.26,0-1.82.39-2,1a10,10,0,0,0-.12,2.91c-.15,5.3-.22,7.79,1.24,9.09l.06,0a4.33,4.33,0,0,0,.52.37,5.36,5.36,0,0,0,.72.33,9.59,9.59,0,0,0,1.37.37,57.64,57.64,0,0,0,5.74.69c.19,0,.34.44.51.67a11.32,11.32,0,0,1-17.87-2.25c-4.78-7.71-4.6-15.74-.18-23.48,3.88-6.78,14.52-7.52,17.31-.76,2.59,6.29,6.52,6.47,11.71,6.15,2.94-.18,5.89,0,8.83,0,1.57,0,3.57.31,3.12-2.41a26.45,26.45,0,0,0-1.27-9.55,19.27,19.27,0,0,0-7.45-9.64c-3.58-4.36-8.48-5.91-13.52-6.83-1.16-.21-2.33-.38-3.49-.55-17.48-2.55-35.61,3.91-40.32,23.34-3.78,15.54-2.76,30.22,10.42,41.85,4.86,4.28,10.94,5.53,16.53,8h10.84a5.55,5.55,0,0,1,1.61-.88c7.78-1.26,14-4,18.62-8.18a26.39,26.39,0,0,0,6.52-9.1l.12-.28c.31-.73.59-1.48.84-2.26a39.17,39.17,0,0,0,1.66-14.94h0C1581.82,682.89,1581,681.32,1577.54,682Z" transform="translate(-63.99 -166.25)"/><path class="cls-1" d="M793,719.43a5.37,5.37,0,0,0,.15-.76,6,6,0,0,0,0-.73,13.62,13.62,0,0,0-1-4.22q-9.42-28-18.89-56c-.29-1.09-.69-2.17-.88-3.29-.8-4.83-3.69-6.26-8.32-5.58a61.11,61.11,0,0,1-11.67.87c-4.07-.19-6,1-7.29,5.12-5.87,18.51-12.15,36.88-18.27,55.31-1.24,3.71-2.69,7.38-2.59,11.39h18.72c0-4.15,1.66-7.91,2.7-11.83a2.43,2.43,0,0,1,2.79-2c5.22,0,10.45,0,15.67,0,2.27,0,3,1.18,3.54,3.18.35,1.22.6,2.47.87,3.72a20.31,20.31,0,0,0,2,6,7.22,7.22,0,0,0,0,.93h22.65c0-.33-.09-.67-.14-1Zm-39-30.18c-1.53-.43-2-1.19-1.4-2.85,1.27-3.8,2.28-7.69,3.64-12.37.83,2,1.55,3.83,2.16,5.65a49,49,0,0,1,2.15,8.92Z" transform="translate(-63.99 -166.25)"/><path class="cls-1" d="M674.2,692.57a12.9,12.9,0,0,0-1.55-3.6,10,10,0,0,0-.78-1.1,14.21,14.21,0,0,0-4.77-3.75l1-1.86.92-1.08a5.89,5.89,0,0,0,1.84-2.84,6.68,6.68,0,0,0,.25-2.07,1.39,1.39,0,0,0,.48-.4,2.06,2.06,0,0,0,.18-1.61c.11-1,.23-1.94.34-2.92,1.19-2,1.43-4-.09-5.91a13.69,13.69,0,0,0-1.69-7.45,12.46,12.46,0,0,0-1-1.48l-.23-.29a17.26,17.26,0,0,0-6.06-4.44,3.53,3.53,0,0,0-.46-.54,3.87,3.87,0,0,0-1.52-.81,7.18,7.18,0,0,0-.83-.2,16.88,16.88,0,0,1-1.9-.42,16,16,0,0,0-3.79-1c-12-.09-24-.06-35.94-.1a6,6,0,0,0-1,.08c-2,.41-1.75,2.2-1.56,4q0,9.78,0,19.56,0,12.79,0,25.6v2.83q0,9.88,0,19.77l40.26.1c.82-.08,1.62-.18,2.41-.31l1-.18c5.1-1,9.54-3.18,12.49-8.13a12.85,12.85,0,0,0,2.36-6.18,16.61,16.61,0,0,0,.12-2.25C674.92,699.76,675.11,696,674.2,692.57Zm-34.36-26.14c4.31.49,9.22-1.15,12,3.93-.11.68-.21,1.36-.32,2-1.11,2-3.15,2.35-5.08,2.44-3.93.17-7.87.06-11.81.07,0-1.19,0-2.39,0-3.58C634.1,667.29,636,666,639.84,666.43Zm12.55,33.47c-5.57,4-11.82,1.62-17.79,1.89v-2.88c-.26-2.45.27-4,1.69-4.69a6.37,6.37,0,0,1,3.55-.32c2.72.36,5.55-.18,8.26.2a10.38,10.38,0,0,1,2.18.52,6,6,0,0,1,.92.44,4.34,4.34,0,0,1,.49.35C652.74,696.3,653.17,697.69,652.39,699.9Z" transform="translate(-63.99 -166.25)"/><path class="cls-1" d="M1236.24,697.65a13.76,13.76,0,0,0-.22-5.17c-.86-3.45-3.18-6.15-6.59-8.3,1.39-3.26,4.72-5.72,4.13-9.81a21.7,21.7,0,0,0,1.18-6.93,19.12,19.12,0,0,0-.46-4.18c-.09-.37-.18-.74-.29-1.1a16.52,16.52,0,0,0-3.81-6.7,15.62,15.62,0,0,0-3.52-2.8,5.49,5.49,0,0,0-.55-.53A9.71,9.71,0,0,0,1222,650a17.56,17.56,0,0,0-1.81-.36c-13.32-2-26.73-.45-40.09-.9a3.34,3.34,0,0,0-1.74.3c-1.2.66-.93,2.25-.8,3.75q0,30.45,0,60.88,0,3.44,0,6.87l40.28.09a40.14,40.14,0,0,0,7.35-1.27,13.91,13.91,0,0,0,9.25-7.66,16.25,16.25,0,0,0,2.14-8.66C1236.57,701.27,1236.41,699.46,1236.24,697.65Zm-40-24.6c-.15-6.51-.15-6.51,6.51-6.77,2.09.23,4.21.33,6.27.7,3.1.55,4.83,2.27,4.77,5.7,0,3.27-1.43,5.09-4.66,5.82-3.41.76-6.81.35-10.22.35-1.82,0-2.56-1.14-2.58-2.87C1196.35,675,1196.29,674,1196.27,673.05Zm18.38,26.78c-3.85,3.12-8.44,1.66-12.73,2.13-3.93.43-5.43-1.1-4.88-4.93a24,24,0,0,0,.07-2.94c4,0,8.05-.22,12.06,0a9.49,9.49,0,0,1,1.83.26,5.16,5.16,0,0,1,.67.2,4.89,4.89,0,0,1,1.67,1A5,5,0,0,1,1214.65,699.83Z" transform="translate(-63.99 -166.25)"/><path class="cls-1" d="M1353.93,713.51c-3.09-9.12-5.91-18.34-9.21-27.39-.72-2-1.37-4-2-6-.47-1.51-.93-3-1.4-4.53l-.48-1.51c-.33-1-.66-2-1-3l-.54-1.48c-.22-.58-.45-1.15-.68-1.73a51.12,51.12,0,0,0-2.56-5.4,10.12,10.12,0,0,0-.68-3.94,6.89,6.89,0,0,0-1.3-2c-.09-.59-.19-1.18-.29-1.77-.26-.93-.35-2.06-.58-3.07a5.77,5.77,0,0,0-.49-1.38,2.4,2.4,0,0,0-.56-.7,3.06,3.06,0,0,0-2.68-.5c-6,1-12,.67-18.07.76a3.54,3.54,0,0,0-3.88,2.83q-1.17,3.59-2.39,7.17c-2.41,7.17-4.9,14.32-7.34,21.48l-5.58,16.58c-1.45,1.68-1.38,3.8-1.62,5.82,0,.29-.08.58-.13.86a6.36,6.36,0,0,1-.78,2.17c-2,4.75-3.86,9.53-3.94,14.78h18.71q.49-3.44,1-6.89a1.9,1.9,0,0,0,.67-.87,2.09,2.09,0,0,0,.09-.52,2.91,2.91,0,0,0-.06-.57c0-.33.09-.67.14-1,.73-.69.76-2,1.16-2.9a1.85,1.85,0,0,1,.49-.67,1.46,1.46,0,0,1,.52-.24,1.76,1.76,0,0,1,.34,0c6.34-.21,12.92-1,19,.38,3,.68,2.24,6.61,3.63,10,.3.75.56,1.53.85,2.29l22.41.05-.12-1C1355.47,717.46,1354.61,715.52,1353.93,713.51ZM1313.56,689q1.95-6.78,3.89-13.57a36.48,36.48,0,0,1,1.81,3.28c.2.41.39.83.57,1.24a33,33,0,0,1,2.49,9Zm9,.24a2.58,2.58,0,0,1,.48.77A2.89,2.89,0,0,0,1322.56,689.25Z" transform="translate(-63.99 -166.25)"/><path class="cls-1" d="M883.82,721.57c0-.34.11-.68.16-1-2.9-4.59-6.05-9-8.72-13.75-.88-1.57-1.72-3.18-2.47-4.84-.68-1-1.35-2-2-3a5.81,5.81,0,0,1-2-2.5c-.15-.32-.29-.65-.43-1l-.24-.57-7.06-10.27-1,.15v35.7c0,.35.11.7.16,1H842.44c0-.34.1-.68.14-1l0-67.74c-.43-2.12-.08-3.5,1.48-4a5.94,5.94,0,0,1,2-.15c2.75.18,5.52,0,8.27,0,8.77,0,12.35,2.8,14.78,11.59l.64.44a2,2,0,0,1,1.06,1.93l12.92,18.22.21-28.24c-.33-1.87-.14-3.23,1.28-3.73a4.75,4.75,0,0,1,1.85-.21q5.59.25,11.19,0c3.08-.14,3.58,1.45,3.12,4v67.86c.05.34.11.68.16,1Z" transform="translate(-63.99 -166.25)"/><path class="cls-1" d="M1458.42,648.7a58.54,58.54,0,0,1-9.27,0,7.24,7.24,0,0,0-1.93.11c-1.61.37-2.25,1.53-1.76,3.83,0,.94,0,1.88,0,2.83l0,1.08c0,3.58.13,7.17-.07,10.74,0,.51-.07,1-.11,1.52-.35,3.81,1.39,7.79-.91,11.43-2.81-4.27-5.51-8.61-8.28-12.9s-5.62-8.54-8.72-12.61a3.24,3.24,0,0,0-.41-1.33,13.3,13.3,0,0,0-1.39-1.8c-.66-2.15-2-3-4.35-3-4.54.15-9.09.19-13.63,0a4.57,4.57,0,0,0-2.66.5c-1,.63-1.18,1.85-.84,3.62h0q.08,26.48.16,53c0,.35,0,.71,0,1.07,0,1-.1,1.93-.14,2.9-.06,3.94-.12,7.89-.17,11.83h17.73q-.11-5.91-.2-11.84V683.56c5.8,7.18,8.77,14.52,14,20.3.32.66.65,1.32,1,2s.5,1.13.79,1.67a6.7,6.7,0,0,0,2,2.36,26.1,26.1,0,0,0,1.31,2.84,84.12,84.12,0,0,0,5,7.83l-.21,1h17.73c-.06-.34-.13-.68-.19-1h0c0-3.6,0-7.21,0-10.82l.06-56C1463.84,649.83,1462.49,648.28,1458.42,648.7Zm-8.36,54.6h0l.06.1Z" transform="translate(-63.99 -166.25)"/><path class="cls-1" d="M1019.67,686a32.15,32.15,0,0,1-3.88,18.7c-4.1,9.79-12.48,13.6-22,15.75-1.21.27-2.68-.31-3.54,1.09H979.37c-4.33-2.39-9.59-2.6-13.58-5.85l-1.15-.89a10.87,10.87,0,0,1-3-3.05,25.43,25.43,0,0,1-6.32-6.91c-.22-.37-.44-.74-.65-1.12a27.79,27.79,0,0,1-1.48-3.12c-.24-.61-.46-1.23-.67-1.86a34.65,34.65,0,0,1-1.47-7.18l-.21-2c-.1-1.19-.2-2.38-.25-3.59,0-.45,0-.9,0-1.35s0-.79,0-1.19a28,28,0,0,1,1.18-8.24,5.64,5.64,0,0,1,.44-2.4,2,2,0,0,1,.22-.29,2.56,2.56,0,0,1,.34-.31c.06-.23.11-.46.15-.7a2.22,2.22,0,0,1,.36-1.75,1.64,1.64,0,0,1,.54-.39c0-.44.06-.86.11-1.27s.12-.83.2-1.22a14.69,14.69,0,0,1,.65-2.28c.11-.29.23-.58.35-.86a17.61,17.61,0,0,1,.83-1.62,17,17,0,0,1,1.36-2,28.74,28.74,0,0,1,7.29-6.28c11.37-7.27,23.76-8.41,36.49-3.39.54.19,1.1.35,1.64.55a8.13,8.13,0,0,1,1,.44h0a4.28,4.28,0,0,1,1.33,1.12,25,25,0,0,1,7.25,4.75l.07.06a18.64,18.64,0,0,1,1.71,2,17.82,17.82,0,0,1,1.34,2c.22.39.43.78.62,1.19a17.9,17.9,0,0,1,1,2.56,20.83,20.83,0,0,1,.84,4.35,3.21,3.21,0,0,1,.8,1.62c0,.12,0,.24.05.36a5.72,5.72,0,0,1,0,.72c0,1-.24,2-.2,2.93.39,2.75-1.65,2.3-3.2,2.33-3.11.06-6.24-.05-9.35,0-4.55.13-8.71.6-10.47-5.57-1-3.66-5.12-5.48-9.25-5.24a10.94,10.94,0,0,0-9.8,7.11c-.23.56-.45,1.12-.64,1.68a30.55,30.55,0,0,0-1.31,12.3h0c1.34,3.5,2.52,7.12,4.88,9.87a14.36,14.36,0,0,0,1.09,1.12,12.35,12.35,0,0,0,3.8,2.34c1.35-.11,2.72,0,4.08,0q.67,0,1.35-.06a8.49,8.49,0,0,0,3.15-.84c.34-.17.75-.31,1.14-.47.7-.27,1.35-.59,1.56-1.2a2.33,2.33,0,0,0-.41-1.84l-3,0h-1a9.34,9.34,0,0,1-3.41.34c-2-.28-3-1.82-2.52-5.3a40.25,40.25,0,0,0,.16-5.39c0-3.34.61-4.85,2.81-5a19.06,19.06,0,0,1,5.93,1l2.08.21a119.89,119.89,0,0,1,14.92-.43c1.66,0,3.31,0,5-.1C1019.54,681.6,1020.51,682.92,1019.67,686Z" transform="translate(-63.99 -166.25)"/><path class="cls-1" d="M1785.82,530.59c-1.42-1.45-2.56-3.54-5.13-3.27h0a.55.55,0,0,0-.18-.59h0c0-2.08-1.52-3.24-2.94-4.22-4.39-3.07-8.69-6.36-13.42-8.8-2.14-1.11-4.25-2.32-6.39-3.48-.65-.35-1.3-.7-2-1s-1.59-.81-2.4-1.19-1.51-.69-2.27-1a30.23,30.23,0,0,0-8.4-2.2q-6-2.12-11.93-4.27l-6.28-2.23-6.09-2.12c-6.81-2.33-13.56-4.79-19.73-8.55-.91-.55-1.81-1.12-2.67-1.73a19.48,19.48,0,0,1-2.42-2l-.09-.1a12.79,12.79,0,0,1-1.48-1.72,11.38,11.38,0,0,1-1.15-2,11,11,0,0,1-.56-1.59c-.28-6.35,1.67-10,4.72-12.19.31-.22.62-.43,1-.62a14.48,14.48,0,0,1,2.06-1,22.06,22.06,0,0,1,3.41-1c8.23-1.8,16.59-1.54,24.91-.67,16.17,1.7,31,7.62,45.61,14.41,5.22,2.43,10.47,4.82,16.11,7.41V427h0c-.06-1.41.47-2.88-.71-4.59-1.3.77-2.65,1.47-4,2.13l-1.54.74c-1,.49-2.09,1-3.12,1.47-.64.3-1.28.62-1.91.94a35.79,35.79,0,0,0-5.47,3.35,4.49,4.49,0,0,1-1.37.65,5.51,5.51,0,0,1-2.76-.07c-.48-.11-1-.25-1.46-.41-6.56-2.07-13.19-3.88-19.8-5.8-9-3.14-18.21-3.64-27.57-3.19-4.59-.47-9.11.15-13.66.58l-2,.17c-12,.9-23.3,3.76-32.9,11.11a72.25,72.25,0,0,0-5.8,4.91c-.91.86-1.79,1.76-2.62,2.68-.42.46-.83.93-1.22,1.41a31,31,0,0,0-7.09,15.39h0a1.89,1.89,0,0,0-.61.62,1.94,1.94,0,0,0-.24.6,10,10,0,0,0-.12,1.75h0a2.42,2.42,0,0,0-.42.43c-.82,1.05-.44,2.37-.47,3.59a8.46,8.46,0,0,1-.11.88,3.16,3.16,0,0,0-.9,1.79,19.56,19.56,0,0,0,.09,3.24c0,2.46,0,4.92-.1,7.38q-1,30,24.1,46.38c14.12,9.22,29.77,14.9,45.65,20.08,9.64,3.14,19.39,6,28.3,11,1.23.69,2.44,1.4,3.57,2.18.43.29.85.59,1.25.91a13,13,0,0,1,5.43,9.14c0,.52,0,1,0,1.51q0-.74,0-1.5a21.21,21.21,0,0,1-1.88,4.47,18,18,0,0,1-1.27,1.9c-.23.3-.46.58-.71.86a17.2,17.2,0,0,1-9,5.19,97.09,97.09,0,0,1-14.74.83c-2.46,0-4.92-.06-7.38-.11l-3.69,0c-1.23,0-2.46,0-3.69,0h0a1.66,1.66,0,0,0-.29-.34l-.1-.07a1.51,1.51,0,0,0-.58-.29,9.88,9.88,0,0,0-1.89,0c-22.42-2.36-42.55-11.5-62.36-21.4a3.14,3.14,0,0,0-.38.57,3.18,3.18,0,0,0-.37,1.17c-.12.92.09,1.82,0,2.67q.08,25.62.14,51.25c0,2.52-1.41,6.09.61,7.27s4.49-1.8,6.78-2.92a3.34,3.34,0,0,0,.4-.25c.37-.3.69-.7,1-1a20.18,20.18,0,0,1,13.53-4.37c.48,0,1,.06,1.46.11a35.46,35.46,0,0,1,7.6,1.78c24,8.14,48.63,10.08,73.5,4.24,13.59-3.2,25.43-9.5,33.75-21.22,4.71-6.63,6.69-14.37,8.94-22V554.1C1795.34,545.54,1792.3,537.15,1785.82,530.59Zm-54.18,63.95c.46,0,.93,0,1.33,0h0C1732.57,594.54,1732.1,594.53,1731.64,594.54Z" transform="translate(-63.99 -166.25)"/><path class="cls-1" d="M750.61,571.42c-2.7,1.53-5.65,2.63-8.29,4.24-5.35,3.26-11,4.36-17.28,4.16-10.79-.34-21.6,0-32.41,0l-8.8-.08-1.52.15-.62.06h0l-13.7-.11-12.7-.11h0q0-44.13,0-88.26c0-1.42,0-2.85,0-4.28-.07-4.28.16-20.52.09-24.36,0-2.74-.14-5.49-.22-8.23q0-6.89,0-13.76l0-34.37h0c.35-1.92.18-2.9-.54-3.14a.93.93,0,0,0-.34-.06l-.39,0a4.19,4.19,0,0,0-.72.18,11.46,11.46,0,0,0-1.51.68q-16.11,8.28-32.42,16.18c-.32.16-.62.32-.9.49a4.45,4.45,0,0,0-2.37,5.22q0,15.76,0,31.52,0,62.55,0,125.09c0,9.22,0,18.44-.09,27.66,0,3.07-.06,6.15-.1,9.22s1.12,3.58,3.77,3.54c9.51-.11,19-.05,28.53,0q50.4,0,100.82.05c2.74,0,5,.34,4.93-3.85-.28-15.08-.19-30.16-.24-45.25C753.9,571.66,754.23,569.38,750.61,571.42Z" transform="translate(-63.99 -166.25)"/><path class="cls-1" d="M1630.67,506.93a47.8,47.8,0,0,0-1.42-12.09,108.91,108.91,0,0,0-4.24-15.17c-.6-1.62-1.25-3.23-1.94-4.81a65.92,65.92,0,0,0-11.25-17.63,38.9,38.9,0,0,0-4.75-6.86c-.72-.83-1.46-1.63-2.23-2.4s-1.58-1.52-2.4-2.25-1.45-1.24-2.2-1.84a84.35,84.35,0,0,0-7.12-5,77.14,77.14,0,0,0-8.58-5.92c-1-.59-2-1.15-3-1.68-2-1.08-4-2.05-6.12-2.93s-4.18-1.66-6.32-2.35c-.95-.3-1.91-.59-2.87-.85-1.93-.53-3.87-1-5.84-1.37a77.45,77.45,0,0,0-12-1.35c-27.16-1-54.38-.24-81.57-.34a7.39,7.39,0,0,0-1.08.05c-2.3.25-3,1.47-2.53,4a23.18,23.18,0,0,0,1.55,3.74A16,16,0,0,0,1467,433a1.42,1.42,0,0,0,.89,1.21,1.82,1.82,0,0,0,.59.06s.11.37.12.37a5,5,0,0,0,.86,3.79,4,4,0,0,0,.37.47c.33.69.66,1.38,1,2.07a20.13,20.13,0,0,1,2.17,9.45c0,1,0,1.95,0,2.93s0,1.95,0,2.93q0,10.08,0,20.17.09,36.39.21,72.79,0,9.78,0,19.56c0,.15,0,.3,0,.46s0,.45,0,.67q0,10.77,0,21.54l0,2.06q-.14,3.42-.29,6.84a88.7,88.7,0,0,0-5.91,11c-1.07,2.25-2.11,4.52-3.23,6.75-.74,1.48-1.38,3.36.39,4.83l14.7,0,2,0,.34,0h.14l.47-.12.49,0,.12,0,.35-.1h2c.4.08.8.15,1.2.2a7.09,7.09,0,0,0,3.58-.38,114.32,114.32,0,0,0,14.8.47c3-.06,6-.14,8.92-.16.59,0,1.17,0,1.76,0,1.64,0,3.29.07,4.93.14l2.29.08a41,41,0,0,0,11.51-.82l.15-.09a1.51,1.51,0,0,0,1,.82,6.07,6.07,0,0,0,2-.15H1538l5.87,0c1.23,0,2.47.16,3.69.16.41,0,.82,0,1.22-.07,30.15-3.14,53.5-17.33,69.32-43.29a86.38,86.38,0,0,0,8-16.81,76.94,76.94,0,0,0,4.26-23.51c0-1.61,0-3.21,0-4.82,0-.36,0-.71,0-1.07,0-.65,0-1.3,0-1.95s0-1.33,0-2l0-6.91C1630.29,517.37,1630.71,512.14,1630.67,506.93Zm-39.4,27.5c0,.62-.11,1.24-.17,1.86a4.35,4.35,0,0,0-.53,3.85l-.12,2.15c-2.17,4.68-3.63,9.62-6.42,14.09-4.51,7.22-11.09,12.18-17.44,17.47q-3.27,1.23-6.58,2.36a116.47,116.47,0,0,1-11.2,3.21l-36.46.29q-.13-28.05-.28-56.1c0-13.13.17-26.25.16-39.37q0-6.57-.08-13.13c0-4.38,1-6.29,5.65-5.72a25,25,0,0,0,3.47.15c1.94,0,3.9-.19,5.84-.22l5,0H1534c1.35.15,2.71.39,4-.37l2.1-.21,1.4.28a72,72,0,0,1,14.23,2.62q2.28.67,4.48,1.53a54.31,54.31,0,0,1,6.43,3,51.66,51.66,0,0,1,9.86,7.09l.12.12,2.43,2.5a24.15,24.15,0,0,0,1.83,2.91,15.11,15.11,0,0,0,2.34,2.53q2.59,5.33,5.18,10.66a1.8,1.8,0,0,0,1,2c.24,2,.5,4.09.74,6.13s.49,4.1.69,6.14a90.93,90.93,0,0,1,.48,12.36C1591.26,527.83,1591.27,531.13,1591.27,534.43Z" transform="translate(-63.99 -166.25)"/><path class="cls-1" d="M917.44,575.76c1.2-.59,2.36-1.3,3.6-1.79.43-2.35.12-3.64-1.2-3.57a5.59,5.59,0,0,0-2.43,1A13.66,13.66,0,0,1,916,572c-1.42.62-2.88,1.16-3.79,2.59-5.18,1.65-10.2,3.49-15.65,4.11-.77.09-1.56.15-2.36.18s-1.83,0-2.77,0c-5-.24-10-.32-15.05-.33-8.36,0-16.74.19-25.11.2l-.35.06-.74.14h0l-9.72-.19-27.58-.12c0-1.12,0-2.24-.07-3.36l-.15-7.41h0c.07-6.68.25-13.37.14-20,0-2.77.9-3.75,3.65-3.67,1.1,0,2.2,0,3.3,0,3.3,0,6.6-.1,9.9-.13h0c19.36,0,38.73.06,58.09.19,3,0,4-1,4-4q-.07-3.07-.1-6.15c-.06-6.15,0-12.3-.08-18.45,0-3.92,0-7.83,0-11.75a8.12,8.12,0,0,0,.14-1,4.85,4.85,0,0,0,0-.86c-.2-1.56-1.34-2.25-3.71-2.21-3,0-6,.07-9,.09-8.95.07-17.91.05-26.87.08h0L839.5,500l-26.56-.11c0-7.7,0-15.4,0-23.1q0-3.84-.07-7.7c0-2.7.77-3.77,3.59-3.69,5.37.14,10.75,0,16.13-.06.06-.63.11-1.63.18-2.24-.07.61-.12,1.61-.18,2.24,21.34,0,42.68.08,64,0a18.33,18.33,0,0,1,8.95,2.07c5,2.64,10.12,5,15.62,7.75V426.1c.53-2.93-.52-4.15-3.66-4.06-6.56.19-13.13.06-19.69.06H768.86c-.87,0-1.78-.06-2.6,0-1.8.13-3.13.83-2.48,4,6.92,10.27,9.16,21.41,9.74,33.1.19,3.89.2,7.85.14,11.85q-.21,14.19-.25,28.39c-.11,28.39.18,56.79.23,85.19a8,8,0,0,0,3.31.69,8,8,0,0,1-3.31-.69l-.18,15.62c-3.41,4.51-5.2,9.88-7.9,14.77-.43.79-.89,1.58-1.25,2.39a6,6,0,0,0-.41,4.42c0,.08.07.16.1.23a2.56,2.56,0,0,0,.26.44,1.68,1.68,0,0,0,.77.51,1.59,1.59,0,0,0,.3.06l.26,0c.55,0,1.14-.09,1.65-.09q45.94,0,91.88-.1l1.09,0H869l24.27.06q12.13,0,24.27.13c2.67,0,3.76-.68,3.73-3.55-.18-15.2-.19-30.4-.26-45.59C919.8,574.46,918.64,575.17,917.44,575.76Zm-144,28.58h0a5.17,5.17,0,0,0,1.07,1A5.17,5.17,0,0,1,773.43,604.34Zm71.94,11.81c-.08-.1-.15-.22-.23-.34.08.12.15.24.23.34Zm0,0Zm7.57,3.57,1.27.35h0Zm1.32.38h0a3.88,3.88,0,0,1,.23.33A3.88,3.88,0,0,0,854.28,620.12Zm.78.75a1,1,0,0,0,.51-.41h0A1,1,0,0,1,855.06,620.87Z" transform="translate(-63.99 -166.25)"/><path class="cls-1" d="M1275.77,427.47l0-1.4c.39-2,0-3-1-3.53a6.87,6.87,0,0,0-3.17-.5c-12,.12-24,.06-35.93.06H1123.46c-.88,0-1.8,0-2.61,0-1.79.15-3.08.89-2.4,4.07,1.86,3.81,3.49,7.76,5.65,11.39,3.21,5.38,4.28,11,4.11,17.24-.07,2.7-.1,5.39-.11,8.08,0,8.08.19,16.16.25,24.25q0,5.4-.08,10.82c0,6.2-.23,12.41-.13,18.61.21,12.57-.59,25.15.41,37.71a6.68,6.68,0,0,0,.2.86.77.77,0,0,0-.26.89h0c-.74,6.24-.31,12.49-.22,18.74l0,20.69c-.07,1.6-.15,3.2-.23,4.8-.46.81-.93,1.61-1.4,2.42-1.41,2.41-2.84,4.81-4.1,7.29l0,.06c-.26.51-.52,1-.76,1.55a35,35,0,0,0-3,8.9c-.7,2.17.39,2.54,1.73,2.6h1l66.68-.21c28.22.07,56.44.1,84.66.25,2.89,0,3.12-1.46,3.1-3.7-.09-13.56-.12-27.12-.17-40.69a9.46,9.46,0,0,0-1.17-.08,9.46,9.46,0,0,1,1.17.08c0-.8,0-1.61,0-2.41s0-1.61,0-2.41c.26-1.94.24-3.44-1.2-3.28a3.44,3.44,0,0,0-.85.22,8.93,8.93,0,0,0-1.11.53c-1.84,1-4,1.55-5.81,2.55a38.48,38.48,0,0,1-20.59,4.91c-3.8-.17-7.59-.23-11.39-.23-6.34,0-12.68.14-19,.15l-1.87.15-.33,0a8.77,8.77,0,0,1-.65,1,8.77,8.77,0,0,0,.65-1l-46-.23q-.11-5.91-.2-11.82h0V556.2c0-2.68,0-5.35,0-8-.26-2.27.35-3.25,1.34-3.67,1.27-.54,3.17-.15,4.66-.38H1180l13.15,0c16.52,0,33,0,49.54.23,3.23,0,3.74-1.33,3.71-4.11,0-3,0-6.05-.07-9.07,0-9.08,0-30-.79-30.65a2,2,0,0,0-.39-.25,4,4,0,0,0-1.43-.35,7.54,7.54,0,0,0-1.08,0c-4.71.2-9.44-.12-14.15.1-1.69.08-3.39,0-5.09-.13-.63,0-1.27-.06-1.91-.07a22.64,22.64,0,0,0-2.85.12c-.63.07-5,0-5.79,0h-.33c-.54,0-1.09.11-1.63.18l-43.3-.15h0c0-1.21,0-2.41-.07-3.62q-.08-4.08-.16-8.16l.21-22.64,2-.34c8.27.3,16.54.39,24.81.37,7.48,0,52.47-.64,56.93.08.64.1,1.27.22,1.9.34s1.45.31,2.16.49,1.64.42,2.45.66,1.85.58,2.77.9,2.09.77,3.13,1.2,2,.84,3,1.31a86,86,0,0,1,9.14,5V431c0-.14,0-.29,0-.43,0-.5,0-1,0-1.51a3.71,3.71,0,0,0-1.17-.1,3.71,3.71,0,0,1,1.17.1C1275.75,428.5,1275.76,428,1275.77,427.47Z" transform="translate(-63.99 -166.25)"/><path class="cls-1" d="M1449.45,422q-25.82.18-51.64,0a9.18,9.18,0,0,0-1.09.05c-2.32.26-3,1.52-2.39,4.08a63,63,0,0,1,10.11,34.62,78.27,78.27,0,0,1-.42,8.61,4.6,4.6,0,0,0,.12,1l-.06,21.68-.12,29.6h0a9.29,9.29,0,0,1-3.88-2.8l-.49-.49-.57-.54c-.21-.18-.43-.35-.65-.52s-.17-.15-.26-.21a6.94,6.94,0,0,0-.92-.54h0c-1.31-1.14-2.57-2.35-3.81-3.56l-2-1.94c-.63-.61-1.27-1.23-1.91-1.83-22-20.6-44.3-41-66.49-61.44-7.87-8.3-16.59-15.7-25.09-23.32a3.33,3.33,0,0,0-1.25-.81l-.22,0c-.72,0-.75,1.2-.66,2.36q0,28.18,0,56.38l-.06,84.55h0q0,6,0,12c0,3.56,0,7.11,0,10.67h0a2.59,2.59,0,0,1,.48,0,2.59,2.59,0,0,0-.48,0h0a30.67,30.67,0,0,1-1,11.91c-.26.94-.57,1.88-.91,2.8s-.73,1.84-1.14,2.75a51.11,51.11,0,0,1-2.84,5.36,39.15,39.15,0,0,0-2.89,6.23c-1.14,2.92-1,4.59,3.13,4.53,16.73-.23,33.46-.07,50.19-.13,1.46,0,3.35.85,4.32-1.2.17-1.29.45-2.59-.22-3.82-1.17-2.19-2.25-4.43-3.33-6.67-.45-.93-.91-1.86-1.37-2.79a68.73,68.73,0,0,0-4.6-8.09l-.18-41.42a9.13,9.13,0,0,0-3.42,0,9.13,9.13,0,0,1,3.42,0V541.31h0V522.8l.72.44,3.93,2.39h0c2.92,2.61,5.54,5.55,8.29,8.35a46.65,46.65,0,0,0,7.7,6.57c8.1,8.64,16.93,16.52,25.67,24.48l3.74,3.43c4.52,4.16,8.48,9,13.71,12.38a118,118,0,0,0,13.25,12.53,5.73,5.73,0,0,1,2.76-1.75,5.73,5.73,0,0,0-2.76,1.75,5.18,5.18,0,0,0,1.5,1.74,3.75,3.75,0,0,0,.69.36,3,3,0,0,0,.45.13l1.12.91c6.19,7,13.15,13.13,20.31,19.69,2.39,2.18,4.8,4.41,7.21,6.74V582.75h0a3.42,3.42,0,0,1-.43.21,3.42,3.42,0,0,0,.43-.21l-.06-2.09a30,30,0,0,0-.09-8.78,56.24,56.24,0,0,0,.38-9.26c-.05-1.85-.14-3.7-.21-5.56-.06-.66-.13-1.32-.18-2a9.88,9.88,0,0,0,0-4.92c.08-2.33.21-4.65.27-7,0-.77,0-1.55,0-2.32q-.06-41.64-.18-83.27h0a76,76,0,0,1,.39-9.45,27.69,27.69,0,0,1,2.68-9.31,38.74,38.74,0,0,0,5.31-9.42c.49-1.1,1-2.2,1.51-3.28C1453.63,423.2,1452.6,422,1449.45,422Z" transform="translate(-63.99 -166.25)"/><path class="cls-1" d="M1108.24,522a2,2,0,0,0-.36-.55c-.59-.65-1.64-.92-3.21-.91q-20.89.19-41.8,0a6.67,6.67,0,0,0-2,.23c-1.58.48-2,1.74-1.54,3.9.63,1.32,1.31,2.61,1.92,3.93.2.45.4.89.59,1.34,1,2.48,2.41,4.84,3.7,7.24,2.14,4,4,8.08,3.65,13q-.1,7.38-.22,14.77h0c-3.33,2.41-6.61,4.9-10.11,7-.58.36-1.17.71-1.77,1s-1.2.67-1.81,1c0,.28,0,.56,0,.83,0-.27,0-.55,0-.83l-6.13,2.45-7,1.65-7.65,1.81-5.39,0c-18.22,0-33.1-7.17-45-21-6.66-7.76-10.52-16.81-13.05-26.55.08-.63.18-1.27.22-1.9,0-.13,0-.26,0-.39a3.82,3.82,0,0,0-.85-2.62c-.07-1.61-.13-3.22-.2-4.83-3.42,0-5.36-.38-6.48-1.65,1.12,1.27,3.06,1.61,6.48,1.65.52-3.13,1-6.28,1.51-9.41.18-1,.37-2.08.58-3.12a55.26,55.26,0,0,1,13.78-26.47q1.23-1.32,2.55-2.55a63.52,63.52,0,0,1,22.12-12.83,88.13,88.13,0,0,1,19.85-2.85,66,66,0,0,1,6.73.21c14.74,2.78,27.45,9.2,37.2,20.85,1.68,2,2.83,1.16,4.46-.07,8.59-6.53,17.28-12.95,25.92-19.42,1.15-.86,2.57-1.6,2.32-3.44.71-3.58-1.63-5.87-3.7-8.11a111.2,111.2,0,0,0-12.52-11.73c-23.42-18.47-49.92-25.14-79.15-20-26.53,4.66-47.53,18.59-63.11,40.46a107.8,107.8,0,0,0-6.61,10.21c-.56,1-1.09,2-1.59,3.08s-1,2.1-1.38,3.18a39,39,0,0,0-2.31,8.48h0a1.19,1.19,0,0,0-.29.18,1.93,1.93,0,0,0-.57,1.94c0,.25-.09.5-.14.75a2.08,2.08,0,0,0-.35.29,1.77,1.77,0,0,0-.39.6,8.87,8.87,0,0,0-.34,2.08l-.75,3.66-.07.38h0l-.82,1c-.21,1.45-.39,2.91-.63,4.36-4.33,25.83-.69,50.23,13.5,72.55a101.94,101.94,0,0,0,18.6,22c1.79,1.57,3.63,3.07,5.54,4.49.72.54,1.45,1.06,2.18,1.58a88,88,0,0,0,16.8,9.2h0a97,97,0,0,0,15.58,5.74,90.3,90.3,0,0,0,21,3.15c18.52.55,36.05-3.15,52.05-12.91l1.15-.79a1.14,1.14,0,0,0,.78-.22c3.4.26,6.05,2.3,8.93,3.78,6.34,3.25,12.66,6.53,19.29,10V574.74c.13-2.37.35-4.74.35-7.11q0-21.52-.06-43h0A4.47,4.47,0,0,0,1108.24,522Zm-99.07,84.8-.74-.43-.72.45h0l.72-.45.74.43Zm73-5.79-.15-.22.15.22Z" transform="translate(-63.99 -166.25)"/><path class="cls-1" d="M910.87,293.59a46.88,46.88,0,0,0,4.38,4.54h0a11.93,11.93,0,0,0,3.47,4.66c.47.44.95.89,1.4,1.35a10.54,10.54,0,0,0,1.15,2,60.48,60.48,0,0,0,4.69,4.92c.74,1.05,1.53,2.07,2.2,3.17,1.89,3.09,3.42,3.47,5.87.17,3.76-5.09,8.35-9.57,12.09-14.67.59-.8,1.23-1.56,1.89-2.3l1.36-1.46.68-.72c.43-.47.86-.93,1.28-1.4l.17-.19a20.07,20.07,0,0,0,3.28-4.76l0-.06c.13-.29.26-.58.37-.88s.23-.65.33-1a6,6,0,0,0,.09-.92s0-.08,0-.12a5.4,5.4,0,0,0-.26-1.58,6.21,6.21,0,0,0-.55-1.17,9.23,9.23,0,0,0-.83-1.12c-6.38-7.41-12.68-14.89-19-22.35-1.93-2.88-2.92-4.16-4.07-3.95a2,2,0,0,0-.39.13,3.51,3.51,0,0,0-.86.58,22.09,22.09,0,0,0-2.24,2.45c-6.47,7.77-12.87,15.59-19.37,23.33a8,8,0,0,0-.53.69,6.35,6.35,0,0,0-.36.6,4.85,4.85,0,0,0-.08,4.54A35.33,35.33,0,0,0,910.87,293.59Z" transform="translate(-63.99 -166.25)"/><path class="cls-1" d="M768.69,281.28a5.78,5.78,0,0,1-2.19-.38,5.78,5.78,0,0,0,2.19.38h0l3.5-3,1.54-1.3v11.13c0,2-.06,3.92-.08,5.88h0l.09,1.93h0c-.06,14.14.28,28.3,0,42.43-.09,4.71-.26,9.41-.54,14.11-.66,11.11,2.45,17.38,13.24,21,8.91,3,17.19,7.85,26.31,12.15V283.09c0-.3,0-.59,0-.89l-.06-11.79c0-1,0-2,0-3l.09-1.82v-.12l-1.68-.54,1.68.54c0-1.64,0-3.28-.05-4.92h0q0-16.25,0-32.48V166.25c-2,2.27-3,3.45-4,4.67q-24.87,29.7-49.73,59.4-21.9,26.13-43.82,52.23h0a5.61,5.61,0,0,1-3.61-2.44c-.14-.18-.27-.36-.41-.56-.91-1.32-1.84-2.64-2.82-3.92-.41-.53-.84-1.05-1.27-1.56a26.71,26.71,0,0,0-4.39-4.17h0a1.37,1.37,0,0,0,.11-.49.84.84,0,0,0-.1-.39,1.23,1.23,0,0,0-.45-.46l-.21-.13q-3.12-3.74-6.23-7.46Q659,217.24,622.18,173.54c-1.16-1.39-2.19-2.92-4.34-2.67-2.74-.4-2,1.71-2,3,0,5.9.06,11.8.11,17.7h0q0,44.83,0,89.68h0v39.33c0,3.31,0,6.62,0,9.93a18,18,0,0,0,5.46,2.07A18,18,0,0,1,616,330.5v55.15l2.82-1.4L637.58,375c4.18-1.13,7.91-3.24,11.7-5.2,1.27-.66,2.54-1.3,3.84-1.88,1.79-.79,2.18-2.19,2.17-4q-.16-25.56-.25-51.13h0q0-3.64.05-7.29c0-1.52,0-3,0-4.56q0-11.83.1-23.66l1.06-.15c1.57,2.11,3.14,4.23,4.76,6.3a67.76,67.76,0,0,0,8.9,9.66c.24.55.4,1.18.67,1.71a4.13,4.13,0,0,0,.32.49c13.51,16.23,27.14,32.35,40.51,48.69,2.6,3.17,3.66,2.56,5.93-.2,12.25-14.91,24.81-29.56,37-44.49,1.21-1.48,2.46-2.93,3.73-4.37,3.78-4.33,7.62-8.62,10.54-13.63Z" transform="translate(-63.99 -166.25)"/><path class="cls-1" d="M839.2,322.71l1,1,.39,2.85.79,1h0a7,7,0,0,0,.78,3.21c.27.6.59,1.19.88,1.78a85,85,0,0,0,13.29,19.55,5.67,5.67,0,0,0,1.94,2.43,8,8,0,0,0,.89.58h0l2,2a2.9,2.9,0,0,0,1.2-.17,2.9,2.9,0,0,1-1.2.17,58,58,0,0,0,18.67,14.83,64.32,64.32,0,0,0,13.51,7.34,100.61,100.61,0,0,0,19,5.28A72.5,72.5,0,0,0,938,386.37q3-.25,5.95-.65c27.36-3.61,49.26-16.64,65.93-38.42,15.82-20.68,21.57-44.32,19.64-70.05.67-3.5-.86-6.75-1.16-10.14a89.5,89.5,0,0,0-5.73-19.71c-.92-2.06-1.7-4.22-2.65-6.28-.27-.59-.56-1.17-.86-1.74-.16-.29-.31-.57-.48-.85a16.23,16.23,0,0,0-3.8-4.51l-.09-1-.81-1.27a9.76,9.76,0,0,0-2.11-4.15l-.39-.55a99.87,99.87,0,0,0-18.46-19.52,95.37,95.37,0,0,0-54.18-21.68c-21.45-1.67-41.68,3.07-59.87,14.78-9.88,6.36-19.31,13.46-25.56,23.84-9.73,10.88-14.82,24-18.49,37.87a.32.32,0,0,0,0,.24c0,.06.08.13.13.21s.4.44.54.65a72.5,72.5,0,0,0-2.24,7.73c-.18.87-.34,1.74-.46,2.63a28.51,28.51,0,0,0-.24,3.6c0,5.7-.34,11.42,0,17.1C833.27,304.21,835,313.77,839.2,322.71Zm44.7-71a5.54,5.54,0,0,0,1.3-.92,9.72,9.72,0,0,0,1.07-1.15l.42-.55,1-1.41,13-10.68c1.34-.6,2.7-1.17,4-1.8,16.64-7.84,33.4-8.4,50.37-1a61.7,61.7,0,0,1,23.11,17.55c4.47,7.7,9.25,15.28,10.49,24.36.64,4.65,1.62,9.26,1.46,14h0l-3.06,13.75c-6.37,15.41-16.58,27.22-31.92,34.32a36.66,36.66,0,0,1-4.22,1.62c-4.28,1.38-8.73,2.13-13,3.45h0l-7.9.18-8.87-.9a12.94,12.94,0,0,1-3.89-.56c-.58-.16-1.15-.35-1.72-.55-1.07-.39-2.13-.82-3.2-1.21-19.11-6.88-31.9-19.91-37.83-39.41-1.16-3.82-1.67-7.84-2.48-11.77A66.84,66.84,0,0,1,883.9,251.73Z" transform="translate(-63.99 -166.25)"/><path class="cls-1" d="M1333,386.47c.07-.4.09-1,.16-1.39-.07.4-.09,1-.16,1.39,29.16,0,58.32,0,87.48.18,3.29,0,3.2-1.79,3.2-4.07q-.08-22.11-.08-44.23c-.1-1.4.51-2.89-.69-4.48-3.62,1.79-7.41,3.35-10.86,5.45-5.38,3.27-11,4.16-17.28,4.06-16-.24-32,0-48,0h0l-6.91,0h-.91l-5.43-.1-8.3-.16q-.09-22.56-.19-45.13v-2q0-8.34,0-16.69,0-21.24-.08-42.48c0-1.94.09-3.88.14-5.81V230c0-1,0-2.05,0-3.08,0-.25,0-.51,0-.77a7.15,7.15,0,0,0-.91-.14,7.15,7.15,0,0,1,.91.14l0-1.08q.13-8.26.28-16.53h0a2,2,0,0,0,.44-.44,2.68,2.68,0,0,0,.45-1.68,96.11,96.11,0,0,0,6.64-12.42c.66-1.41,1.33-2.83,2-4.24.59-2.92-.4-4.12-3.57-4.1q-25.82.16-51.62,0a6.63,6.63,0,0,0-2,.22c-1.59.46-2,1.69-1.61,3.87,1.67,3.41,3.18,6.91,4.92,10.28.57,1.12,1.18,2.23,1.82,3.32,2.53,4.29,3.13,8.73,3,13.56-.13,8.33.07,16.66.13,25a1.42,1.42,0,0,0,0,.89c0,2.32-.07,4.63-.1,6.95q0,38.42.1,76.84c0,.87.06,1.74.08,2.61v.33a3,3,0,0,0,.52,0,3,3,0,0,1-.52,0c0,1,0,2-.07,3-.09,17-.14,34-.32,51.05,0,2.81,1.33,3.19,3.62,3.17C1303.87,386.56,1318.44,386.53,1333,386.47Z" transform="translate(-63.99 -166.25)"/><path class="cls-1" d="M1042.37,195.45a91,91,0,0,1,4.63,9.06c2.19,5.14,3.48,10.52,2.51,16.55q0,22.66,0,45.33,0,18.12,0,36.24,0,22.31,0,44.62h0l-.21,16.56c-2.25,4.48-4.58,8.92-6.8,13.42q-1.11,2.25-2.17,4.52c-1.84,4,.09,5,4,5,30.79-.12,61.58.06,92.37-.13a59.28,59.28,0,0,0,8.48-.66c1.39-.22,2.76-.48,4.12-.79a57.09,57.09,0,0,0,19.27-8.41,6.74,6.74,0,0,0,.57-2,6.74,6.74,0,0,1-.57,2c1.52-.67,3.1-1.27,4-2.84a38.06,38.06,0,0,0,8-6.9l1-1.14c.88-1,1.72-2.07,2.54-3.13,12.48-16.11,15.48-34.34,11.88-54A33.84,33.84,0,0,0,1195,304c-1.12-3.35-2.33-6.64-3.75-9.81a56.43,56.43,0,0,0-5.21-9.26c-.29-.41-.59-.82-.9-1.22a39.3,39.3,0,0,0-7.64-7.66h0a4,4,0,0,1,1.1-2.71c.08-.12.16-.24.23-.36q1.74-2.88,3.16-5.83c.63-1.31,1.21-2.63,1.74-4,.37-.92.71-1.85,1-2.78a47.75,47.75,0,0,0,2.32-20.63q-1.38-6.39-2.75-12.78,1.38,6.39,2.75,12.78a26.63,26.63,0,0,0-1.25-12.61,55.88,55.88,0,0,0-5.5-13.82c-.71-1.25-1.45-2.48-2.26-3.68-.52-.76-1.06-1.51-1.62-2.26a15,15,0,0,0-1.82-2.05,6.61,6.61,0,0,0-4.05-1.81,5.78,5.78,0,0,0-.32-2.39,3.13,3.13,0,0,0-1.72-1.69h0a8.83,8.83,0,0,1-1.18.78,8.83,8.83,0,0,0,1.18-.78h0a45,45,0,0,0-21.17-12.12,48.86,48.86,0,0,0-11.06-1.45c-31-.56-62.06-.16-93.09-.24a6.72,6.72,0,0,0-2,.22c-1.59.45-2.07,1.65-1.63,3.86C1040.53,191.62,1041.33,193.6,1042.37,195.45ZM1092.82,223c11.6.16,23.21,0,34.82.08a22.18,22.18,0,0,1,6,.87,20.21,20.21,0,0,1,3.56,1.43,18.92,18.92,0,0,1,3.13,2c.49.39,1,.8,1.4,1.23a20.8,20.8,0,0,1,6,14.06c-1.1.8-.93,1.94-.85,3.07-.05.27-.09.55-.12.83l-.81,1.18c0,.28-.06.57-.11.85-3.86,5-8.66,8.82-15.05,9.68-4.16.55-8.43.25-12.64.33l-3.34.37c-8.68-.8-17.38-.41-26.07-.46,0-10.46.08-20.93-.12-31.39C1088.6,224,1089.61,223,1092.82,223Zm-4.18,79c-.06-3.22.94-4.24,4.16-4.19,2.28,0,4.57.05,6.85.06,6.86,0,13.72-.09,20.58-.12,4.85.16,9.75,0,14.55.57,8.76,1.12,14.71,6.85,20,13.32.23,1.08.52,2.13.81,3.19.9,3.17,1.91,6.31,2,9.66-1.48,1.46-.8,3.3-.9,5l-.12.81a1.8,1.8,0,0,0-.63.66,2.28,2.28,0,0,0-.15.36,4.05,4.05,0,0,0-.17,1.06l-.9,1.91c-5.42,6.75-11.52,12.65-20.62,13.57-1.42.14-2.84.23-4.27.3-4.27.18-8.58.09-12.87.19l-7.61-.09-20.6-.15-.18-19.66c0-6.61.12-13.23.1-19.84C1088.7,306.49,1088.68,304.28,1088.64,302.08Z" transform="translate(-63.99 -166.25)"/><path class="cls-1" d="M1208.05,191.54c.48,1,1,2.09,1.45,3.13a42.09,42.09,0,0,0,5.19,8.94l1.26,2.71.93,2h0a1.28,1.28,0,0,1,.39,0,1.28,1.28,0,0,0-.39,0h0l.09,12.72c0,3.29,0,6.57,0,9.86q0,8.87,0,17.73l.42-.22-.42.22v1.08q0,39.87,0,79.72c0,.68,0,1.36,0,2,0,1-.08,2-.08,2.94,0,16.22,2.37,32.89-9,46.94a1.51,1.51,0,0,0-.22.44c-1,3-1,4.94,3.21,4.9,17.19-.17,34.38-.09,51.57-.13,1.2,0,2.71.65,3.33-1.15.19-1.28.51-2.59-.18-3.8-.81-1.39-1.55-2.81-2.28-4.25-.82-1.61-1.61-3.24-2.44-4.85-.34-.67-.69-1.34-1-2a49,49,0,0,0-3.59-5.76q-.06-60.48-.11-121c0-.35,0-.7-.07-1.05q0-4.47,0-8.94,0-9.31-.07-18.62-.64-.13-1.29-.21.64.07,1.29.21c0-1.3.07-2.59.1-3.88-.58,0-1.16,0-1.74,0,.58,0,1.16,0,1.74,0a6,6,0,0,1,.87-4,10.94,10.94,0,0,0,1.17-2.95c1.33-2.16,3-4.15,3.21-6.84h0c2.48-2.08,3.27-5.14,4.62-7.88.4-2.21-.12-3.39-1.72-3.83a7.34,7.34,0,0,0-2-.21q-25.8.18-51.6,0c-3.22,0-4.13,1.24-3.44,4.15C1207.48,190.35,1207.77,191,1208.05,191.54Z" transform="translate(-63.99 -166.25)"/><path class="cls-1" d="M1439.32,199.55l0,0a4.51,4.51,0,0,0,.62,3c.15.3.32.6.48.9a19.65,19.65,0,0,1,1.65,3.56,32.76,32.76,0,0,1,1.37,11.43c-.15,7.82.09,15.66.16,23.48l-.06,1.94a1.5,1.5,0,0,0,0,1q0,3,0,6.06v.87c0,1.32,0,2.64,0,4h0l0,19.7,0,5.81h0l0,1,0,1.06h0c0,.47,0,.94,0,1.42l0,2.49v3.54c0,2.45,0,4.9,0,7.35h0c0,1,0,1.95,0,2.92s0,1.94,0,2.92h0q0,4.95-.07,9.9l.06,26.56c0,3.63,0,7.26,0,10.88l-.18,12.75h0c-3.66,6.59-8.14,12.82-9.41,20.52-.37,2.08.88,2.19,2.17,2.18h.55c3.57,0,7.13-.08,10.69-.12h22.06l74.45,0v0l11.93,0,27.47,0h1.07c3.81.1,5.49.14,6.23-1a3.45,3.45,0,0,0,.22-.43,5.61,5.61,0,0,0,.26-1.18,36.76,36.76,0,0,0,.12-3.86c0-1.17,0-2.34,0-3.51,0-3.51-.12-7-.17-10.52-.78.25-1.36.43-1.81.53.45-.1,1-.28,1.81-.53,0-1.32,0-2.64,0-4l0-2-.06-22.54c.42-2.55.4-4.43-3.06-2.58-2.3,1.23-4.82,2-7.15,3.22a37,37,0,0,1-17.86,4.25q-6-.12-11.92-.14c-11.93,0-23.87.12-35.8.15a15.8,15.8,0,0,0-3.7,0l-.21,0a4.45,4.45,0,0,0-1.26.49,4.09,4.09,0,0,0-.66.48,16.79,16.79,0,0,0-7.52-1.15c-3.19,0-6.38.06-9.57.08l-9.41,0-.3-3-.34.14.34-.14.09-30.6.14-1,24.61-.12h7.94c14.2,0,28.4,0,42.61.12,2.69,0,3.74-.73,3.7-3.56-.17-12.24-.16-24.48-.22-36.73l-3.77,0-3.46,1.58,3.46-1.58-9.88,0,9.88,0,3.78,0c.53-2.34-.08-3.42-1.53-3.86a5.21,5.21,0,0,0-.86-.18c-.32,0-.66-.06-1-.07h-.57c-16.13.11-32.26,0-48.39.07a7.11,7.11,0,0,1-.78-.05c-1.16-.11-2.4-.25-2.87,1.46h0l.15,1.48-.15-1.48h0a10.82,10.82,0,0,0-6.63-1.48c-.77,0-1.54.12-2.32.21H1482.8q-.09-7.44-.2-14.9l-1.8,0,1.8,0v-6c0-.63,0-1.26-.08-1.89,0-.13.07-.26.1-.39a3.49,3.49,0,0,0-.31-2.62,10.19,10.19,0,0,1,0-3,3.31,3.31,0,0,1,.12-.42,4,4,0,0,1,.23-.47c-.47-3.91,1.07-5.68,5.14-4.94a13.44,13.44,0,0,0,2.89-.11l3-.2a29.34,29.34,0,0,0,2.94.32,84.14,84.14,0,0,0,8.84-.18c4,0,8.08.08,12.12.12,8.08.09,16.16.12,24.23-.38a23,23,0,0,0,1.15-2.36,23,23,0,0,1-1.15,2.36,46.15,46.15,0,0,0,8.38.46c1.86,0,3.72-.13,5.57-.21,10-1.11,19,1.38,27.54,5.87,1.22.64,2.43,1.32,3.63,2,.42.25.91.37,1.33.62,2.52,1.54,3,.43,2.94-2-.11-9.65-.08-19.31-.11-29,0-.68-.09-1.36-.14-2L1591,197l.06-7.3-12.64,0h0l12.64,0c.58-2.81-.46-3.67-2.11-3.93a11,11,0,0,0-1.46-.11h-1.06q-31.53.08-63,0-42.6,0-85.2,0c-3,0-5.45.13-4.33,4.18C1435.58,193.11,1436.35,197,1439.32,199.55Z" transform="translate(-63.99 -166.25)"/><path class="cls-1" d="M181.06,712a52.24,52.24,0,0,1-4.63-4c-2.76-2.87-5.5-5.76-8.25-8.63s-5.51-5.74-8.32-8.56c-24.42-24.5-48.78-49.06-73.43-73.32-1.5-1.48-3-3-4.42-4.53s-2.84-3-4.29-4.5l-.08-.08A70.08,70.08,0,0,0,68.15,600h0a4.5,4.5,0,0,0-.19-.68,3.86,3.86,0,0,0-1.12-1.54c-.16-.15-.33-.28-.51-.42-.36-.27-.74-.52-1.14-.8l-.6-.42a13.44,13.44,0,0,0-.31,1.8q0,52.53.06,105.06l-.15,18.73H186.34l.26-.71c-.17-.13-.32-.27-.48-.4C186,716.57,183.67,714.17,181.06,712Z" transform="translate(-63.99 -166.25)"/><path class="cls-1" d="M534.75,720.71c0-.44-.09-.87-.17-1.29a11.34,11.34,0,0,0-.67-2.32,13.1,13.1,0,0,0-1.7-3c-2.27-3-5.62-5.19-8.33-7.86-6-6.39-11.84-12.87-17.9-19.18q-31.22-32.48-62.56-64.84c-3.06-3.16-6.77-5.76-9.5-9.17-1.15-1.44-2.35-2.84-3.57-4.21-3.68-4.11-7.63-7.91-11.67-11.67q-.12-6.68-.25-13.36l0-4c0-2.44,0-4.87,0-7.31,0-1.82,0-3.65,0-5.47h0V567q0-19.65-.1-39.3l.06-32.52q0-18.23,0-36.44c-3.57.05-6.4-1.72-9.09-3.75-.74-.55-.6-.78.2-.17,2.69,2,5.53,3.79,9.09,3.74q.06-23.61.11-47.2c0-1.11.45-2.25-.42-3.36a5.11,5.11,0,0,0-1.22.66q-18,17-36.08,33.94c-5.6,5.26-11.27,10.43-16.88,15.68q-19,17.72-37.91,35.49a8,8,0,0,0-1.46,1.11,2.1,2.1,0,0,0-.53,1c-2.08-.42-2.66,4.44-5.75,1.29q-46.17-46.91-92.53-93.6c-1.11-1.12-2-2.63-3.71-3.06a2.82,2.82,0,0,0-.49,1.87c0,.63.19,1.25.28,1.87q0,64.58-.07,129.16v2q0,12.3,0,24.61c0,16.73-.07,33.46-.19,50.19,0,.22,0,.43,0,.65l.06.66,0,.33c0,.23,0,.45.05.67v.37a3,3,0,0,1-1.1,2.39,10,10,0,0,1,.87,2.14,1.79,1.79,0,0,1-.49,1.42h-.07a1.75,1.75,0,0,0,.36-1.23,10.1,10.1,0,0,0-.87-2.15q-37.93-38.49-75.88-77a5.6,5.6,0,0,0-.45-.4c-.47-.38-1-.7-1.49-1.06h0l-.21-40.82-8.73.88.21-.17,8.73-.89c0-.33,0-.67,0-1l-.2,0q0-8.26,0-16.51l0-28.58h0q0-12.82.08-25.66h0c0-12,.15-24.1.14-36.16,0-17.82-.11-35.65-.17-53.48v-9.15a5.43,5.43,0,0,0-1.69-5.7c-8.26-7.87-16.4-15.87-24.58-23.83a19,19,0,0,0-2.78-3.09c-1-.93-2.12-1.78-3.23-2.61l-2-2.06C94.23,273.53,79.91,259.06,64.08,245v4c0,9.85-.1,19.7-.09,29.55q.06,50.72.15,101.45,0,25.53,0,51.07,0,14.36,0,28.72h0q0,15.25,0,30.52c0,1,0,2,0,2.94v1c0,1,0,1.95,0,2.93a7.63,7.63,0,0,0,.06,3.16,7.91,7.91,0,0,0,.3.9,6.57,6.57,0,0,0,.44.88q.09,1.11.21,2.22c.07.73.16,1.47.26,2.19.19,1.46.43,2.91.7,4.34.18.95.38,1.9.6,2.84.44,1.88.94,3.73,1.52,5.56.28.91.59,1.81.91,2.71.65,1.79,1.36,3.56,2.15,5.29a70.16,70.16,0,0,0,10.82,16.9q5.64,6.52,11.52,12.81c17,18.19,35.23,35.15,52.91,52.66,3.53,3.58,6.86,7.37,10.54,10.79.53.49,1.06,1,1.6,1.44a49.57,49.57,0,0,0,4.57,3.53l.52-.46h0l-.32.28.06.06-.17.21a8.88,8.88,0,0,0,4.09,5.16c.28.16.57.32.87.46s.69.31,1.06.45l.56-.72,0,.07-.38.47a2.07,2.07,0,0,0,.52.16,1.6,1.6,0,0,1,.05.21c1.13,3.75,4,6,6.81,8.31.39.33.78.67,1.16,1a1.11,1.11,0,0,0,.43.07l1.6,1.71-.14.24,7.87,7.87h.37l3.78,3.77c0,.1-.05.19-.08.3l11.81,11.83a3.11,3.11,0,0,1,.66-.79,5,5,0,0,0-.46.62l.87.85a1.86,1.86,0,0,0,.85-.75c1.83,2.43,4.29,5.69,6.07,8.07l3.84,3.84h0a6,6,0,0,1,.21-1.07,6,6,0,0,0-.21,1.07c1.68,1.81,2.86,4.22,5.63,4.72l.1,0c2.13,4.11,5.4,7.13,9,9.85.51.39,1,.77,1.56,1.15a4.42,4.42,0,0,0,3.4,2.86h0a65.75,65.75,0,0,0,19.53,12.92A75.85,75.85,0,0,0,265,713.73a43.87,43.87,0,0,0,6,2.3c3.39,1.06,6.87,1.83,10.33,2.72,5.34,1.37,11,1.07,16.19,3H534.52l.37-.89c-.45-.45-.92-.87-1.4-1.3C533.92,719.94,534.34,720.32,534.75,720.71Z" transform="translate(-63.99 -166.25)"/><path class="cls-1" d="M576,186.57a2.16,2.16,0,0,0-.71-.54,3.93,3.93,0,0,0-.55-.21,7.33,7.33,0,0,0-2-.22q-55.87.12-111.76,0c-.39,0-.75,0-1.08.05-2.29.26-3,1.48-2.59,4,.38.46.73.94,1.09,1.41.23.3.46.6.7.88s.43.49.65.71c12.46,12.5,48.55,47.85,50.49,50.21,3.65-.58,3.75-.58.11,0a16.26,16.26,0,0,0,1.21,1.53q31.11,31.14,62.26,62.24c.63.64,1.11,1.71,2.68,1.31V189.67h-.1C576.63,188.23,576.51,187.22,576,186.57Zm-26.5,54.25-.45,0,.44,0a6.75,6.75,0,0,0,1.9-.3A6.39,6.39,0,0,1,549.45,240.82Z" transform="translate(-63.99 -166.25)"/><path class="cls-1" d="M576.56,408.45a11.73,11.73,0,0,0-.11-1.33,8.71,8.71,0,0,0-.17-.86c-.14-.55-.72-6.08-.78-6.74a3.22,3.22,0,0,0-.24-1c-.14-.31-1.84-11-2.61-13.85s-8.72-19.7-13.72-24.91c-1.92-2-3.87-4-5.83-6-5.88-5.91-11.89-11.7-17.82-17.57L535,336l-.39-.39-3.22-3.19a6,6,0,0,0-.7-1.12,1.58,1.58,0,0,0-.12-.15,4.7,4.7,0,0,0-.49-.51,3.93,3.93,0,0,0-.55-.44,6.16,6.16,0,0,0-.87-.5l-3.2-3.19c-18.29-19.14-37.2-37.68-56.09-56.22a2.76,2.76,0,0,0-1.29-1.19,1.57,1.57,0,0,0-1.15.14l-1.73-.05.55-.13,1,0-.06-.26.11,0a2.36,2.36,0,0,0-.55-1.88,8.72,8.72,0,0,0-1.69-1.35L464,265l-.59-.59-.06,1.25c-1.65,1.86-3.54.78-4.47-.15,1,.89,2.75,1.76,4.31,0l.06-1.25-26.42-26.4a0,0,0,0,0,0,0l-.93-.95-2.9-3-7.45-7.36-8.42-8.34a114,114,0,0,0-15-14.57c-.78-.62-1.56-1.23-2.36-1.83-2.11-1.61-4.29-3.13-6.54-4.58-11.9-7.65-24.6-11.8-39.25-11.66-55.41.51-110.84.21-166.26.22q-32.22,0-64.44,0a14.28,14.28,0,0,0-2.94.17c-1.39.31-2.25,1.2-1.83,3.69a.31.31,0,0,0,0,.1,79,79,0,0,0,9.28,9.9c1.09,1,2.16,2.1,3.21,3.19,12.82,13.31,26.3,26,38.88,39.53,3,3.27,6.18,6.46,9.36,9.59,5.32,5.23,10.76,10.34,16.08,15.57.85,1,1.63,2.05,2.54,3q26.64,26.76,53.3,53.51l.3.3c.59.62,6.19,6.08,6.41,6.36a163.16,163.16,0,0,0,12.26,12v-.09L273,345.3l2,2c4.3,4.86,33.77,34.27,41.49,42.73,3,3.32,4.79,3.32,8,.09,31.79-32,63.78-63.87,95.58-95.89,2.94-3,4.56-3.4,7.7-.14,11,11.41,22.34,22.47,33.55,33.66h0c9.26,9.4,18.73,18.61,27.67,28.31,3.49,3.79,9.06,16.32,9.05,17.95h-.16c0,.33,0,.67,0,1a1.24,1.24,0,0,1,.33,0l-.17,0c0,2.41,0,4.81,0,7.22q0,7.23,0,14.46l.3,5.93a1.11,1.11,0,0,0-.14.69l-.15,2.23v1.05q0,11.81,0,23.61c0,4.28-.7,8.58.36,12.83h.05l.06,0c-.16.65-.31,1.29-.45,1.94l.06,3q0,17.25,0,34.49,0,4.43-.05,8.85c0,.67,0,1.33,0,2,0,1,0,1.95,0,2.93,0,.34,0,.67,0,1q0,17.91-.1,35.82t-.14,35.81a5.58,5.58,0,0,0,1.92,4.31q8.9,8.4,17.76,16.84a274.76,274.76,0,0,0,20.67,20.57l38.35,38.56V583q0-13.28-.07-26.56,0-47,0-94,0-6.72,0-13.44c0-.68,0-1.36,0-2V430.22l0-3.9c0-1.68,0-3.36-.05-5,0-1.28,0-2.56,0-3.84,0-1.69,0-3.38,0-5.07,0-.66.1-1.32.15-2S576.57,409.1,576.56,408.45Zm-65.75,83.84c.12-.27.24-.55.35-.82h0Zm4.64-8.85c.91.34,2.13.36,2.26.66C517,483.83,516.13,483.71,515.45,483.44Zm5.35-22.05a3.83,3.83,0,0,0,.51-.84h0A3.86,3.86,0,0,1,520.8,461.39Z" transform="translate(-63.99 -166.25)"/></svg>